<svg width="84" height="84" viewBox="0 0 84 84" fill="none" xmlns="http://www.w3.org/2000/svg">
<path d="M49.4397 63.0059L50.25 63C53.9107 63 55.8337 64.5174 58.2062 68.1125L59.3875 69.9373C60.3085 71.3008 60.8833 71.872 61.6074 72.1704C62.9055 72.7054 63.9813 72.4423 67.9322 70.54L69.142 69.9511C71.613 68.738 73.2991 68.0435 75.2043 67.5672C76.4098 67.2658 77.6314 67.9988 77.9328 69.2043C78.2342 70.4098 77.5013 71.6314 76.2957 71.9328C75.1115 72.2289 73.9769 72.6536 72.4924 73.3377L69.0165 75.0098C64.3129 77.2311 62.7177 77.4952 59.8927 76.3309C58.0174 75.558 56.951 74.4399 55.3907 72.0541L54.8067 71.1423C53.001 68.2969 52.0922 67.5 50.25 67.5L49.7739 67.5113C48.4745 67.5899 47.6332 68.1853 42.0278 72.3451C36.8011 76.2238 32.815 78.0765 27.7459 78.0765C21.5662 78.0765 15.7432 76.9412 10.2944 74.6716L18.9413 72.6725C21.7731 73.2752 24.707 73.5765 27.7459 73.5765C31.6179 73.5765 34.8274 72.0848 39.3461 68.7314L42.8263 66.1636C46.6404 63.3915 47.4888 63.0481 49.4397 63.0059ZM68.3313 9.66627C73.3522 14.6871 73.3523 22.8275 68.3316 27.8484L65.225 30.9553C68.6809 35.1599 68.5565 39.6161 65.3433 42.8387L56.3402 51.8418C55.4611 52.72 54.0365 52.7193 53.1582 51.8402C52.28 50.9611 52.2807 49.5365 53.1598 48.6582L62.1567 39.6613C63.6119 38.2019 63.78 36.39 62.0368 34.1457L30.2536 65.9283C29.3591 66.8229 28.2311 67.4481 26.9983 67.7326L8.75594 71.9424C7.13578 72.3163 5.68374 70.8642 6.05763 69.2441L10.2674 51.0015C10.5519 49.7689 11.177 48.641 12.0715 47.7465L50.1495 9.66654C55.1701 4.64567 63.3103 4.64553 68.3313 9.66627Z" fill="white"/>
</svg>
