<svg width="30" height="29" viewBox="0 0 30 29" fill="none" xmlns="http://www.w3.org/2000/svg">
<path d="M27 1.66666L24.3333 4.33332M24.3333 4.33332L28.3333 8.33332L23.6667 13L19.6667 8.99999M24.3333 4.33332L19.6667 8.99999M14.1867 14.48C14.8751 15.1593 15.4224 15.968 15.797 16.8597C16.1716 17.7514 16.3661 18.7083 16.3694 19.6755C16.3726 20.6427 16.1845 21.6009 15.8159 22.4951C15.4473 23.3892 14.9054 24.2016 14.2215 24.8855C13.5376 25.5694 12.7252 26.1113 11.8311 26.4799C10.9369 26.8485 9.97867 27.0366 9.01151 27.0334C8.04435 27.0301 7.08739 26.8356 6.19572 26.461C5.30405 26.0864 4.49529 25.5391 3.816 24.8507C2.48017 23.4676 1.74102 21.6152 1.75772 19.6924C1.77443 17.7696 2.54567 15.9303 3.90533 14.5707C5.26499 13.211 7.10428 12.4398 9.02706 12.423C10.9498 12.4063 12.8022 13.1455 14.1853 14.4813L14.1867 14.48ZM14.1867 14.48L19.6667 8.99999" stroke="#757575" stroke-width="2" stroke-linecap="round" stroke-linejoin="round"/>
</svg>
